<svg xmlns="http://www.w3.org/2000/svg" viewBox="0 0 330 330"><path fill="#CEE186" d="M102.61816406-.2746582c1.5211156-.00435916 3.042229-.00954627 4.56333923-.01548767 4.0932415-.01327367 8.18639-.01398165 12.27964878-.0114367 3.43626625.00107794 6.87251431-.00383464 10.30877662-.00860542 8.11820848-.01105557 16.23637068-.01155533 24.35458303-.00548583 8.33026501.00603302 16.66036084-.0062633 24.99059701-.02757007 7.19198656-.01770812 14.38391973-.02360284 21.57592725-.02036226 4.27776076.00179882 8.55540088-.00068098 12.83314157-.01471454 4.02868097-.01272444 8.05710147-.01049882 12.0857792.00241089 1.46352354.00233415 2.9270663-.00025256 4.39056777-.00862313C254.6177563-.51498263 277.93054538 5.76089116 297 22l2.19921875 1.76171875C316.45204025 38.12401518 327.10886703 59.9233743 330 82c.28904772 5.40107297.29458371 10.79465134.29052734 16.20141602.0059964 1.6078675.01280446 3.21573217.02035523 4.82359314.01755821 4.33927742.02235116 8.67847579.02363157 13.0177853.00142841 2.72073318.00571107 5.44144669.01099443 8.16217495.01846947 9.51966168.02667484 19.0392676.0250969 28.5589466-.00119926 8.82784044.01986861 17.65543554.05148732 26.48321397.02629051 7.61573826.0368746 15.23139705.03560186 22.84718025-.00050607 4.53216912.00497745 9.06412014.0263561 13.59624344.01959823 4.27083355.01936225 8.5412458.00496673 12.81209564-.00206305 1.5517979.00245971 3.1036237.01472092 4.65537453.18789876 25.46582643-8.10896769 49.16683847-25.61701965 68.02166366-22.4317884 21.64226377-48.17808407 28.97812018-78.64526367 28.96557618-1.46480392.00299813-2.92960706.00640215-4.39440918.0101776-3.95277255.0087786-7.90552339.01117554-11.85830474.01181579-2.47764185.0007141-4.95527829.00285525-7.43291879.00549722-8.66680434.0092338-17.33359336.01333744-26.00040245.01254845-8.04107334-.00059995-16.0820794.00994059-24.12313575.02574366-6.93456445.01313613-13.86910709.01843769-20.80368387.01780093-4.12793004-.00025325-8.25580023.00250113-12.38371772.01317805-3.88823152.00978365-7.77634726.00969099-11.6645832.00248337-1.4143726-.0010333-2.82875283.00124079-4.24311257.00736045-29.69593144.12000589-54.95549109-8.08368438-76.5246868-28.9393692C10.96810985 285.36828253.84696408 262.23046737.8864746 239.70947266c-.00014603-.70313324-.00029206-1.40626648-.0004425-2.1307068.00069205-2.3049334.00845108-4.6097842.01631164-6.91470336.0018667-1.60568192.00328941-3.21136442.00428772-4.81704712.00380538-4.2118387.01361865-8.42364253.02470398-12.63546753.01025678-4.30358407.01480276-8.60717381.01983642-12.9107666C.96187427 191.86717155.97892677 183.43359013 1 175l2.44921875-.11328125L6.6875 174.6875l3.19921875-.17578125c4.35335912-.71554585 7.07374257-2.29294927 9.92578125-5.63671875C21.48356594 164.8292614 21.67735911 161.31531033 21 157c-2.38221379-4.94767478-4.8370195-7.18339575-10-9-1.73224476-.23034991-3.47030998-.41946475-5.2109375-.57421875l-2.72021485-.2487793L1 147c-.07009099-8.08546973-.12310665-16.17080856-.15543652-24.25650882-.01553139-3.75616042-.03653443-7.51211016-.07088184-11.26814938-.03304839-3.63753205-.05062828-7.2748639-.05831337-10.91253471C.70990498 99.1880027.6992421 97.81320694.68280983 96.43848992.43533025 74.83814572 6.23573258 55.42283508 19 38l2.30859375-3.15234375C36.74088302 15.15818373 58.83370026 4.10060739 83.29323578.42801857 89.726564-.31483524 96.150451-.2870785 102.61816406-.2746582ZM60.625 22.75l-1.9765625 1.0390625C39.50434017 34.11481579 26.07128156 49.7419728 18.8322754 70.31933594c-3.21800705 11.56982446-3.64326107 22.9513621-3.68334962 34.92041016-.02414558 3.41635238-.1230947 6.82585114-.22314453 10.24072265-.01889744 2.18616316-.03338232 4.37236994-.04296875 6.55859375l-.11837769 3.06826783c.03775168 2.94716467.17484624 5.13828779 1.2355652 7.89266967 2.36272765 2.05047937 4.64490017 3.36196287 7.46725463 4.700531C28.99556926 140.53692885 32.70242141 145.52778493 34.9375 151.25c2.21991551 8.04719374 2.20703072 16.24461637-1.6875 23.72265625-3.40844589 5.52807318-6.52686144 8.88443554-12.4609375 11.73046875l-2.72021485 1.31738282L16 189c-.09356332 7.30308374-.16419493 14.6060338-.20724869 21.90960026-.0206861 3.39306346-.0486448 6.78571057-.09450913 10.1785345-.35634048 28.44959555 4.03310928 51.0568528 24.48925782 72.18920899 14.28242371 13.82617963 34.61672822 21.81027383 54.43101501 21.86309815l3.91119385.01730346c1.41319265.0012451 2.82638541.00237025 4.23957825.00338746 1.50214762.00463422 3.0042941.00965969 4.50643921.01504516 4.06871142.0130725 8.13740638.0195595 12.20613551.02401066 2.54916006.0029406 5.09831573.00704736 7.64747357.01150417 7.99623401.01366479 15.99245784.02333499 23.98870272.02720189 9.19144704.0044707 18.38274463.02197683 27.57414627.0510006 7.12899767.02171954 14.25795363.03170922 21.386984.03304052 4.24597178.00104122 8.49180291.00680092 12.7377395.02481962 4.00314006.01665819 8.00603644.01855165 12.00919913.00986099 1.45588148-.00076114 2.91177703.0034477 4.3676243.01345825 24.39145468.15765506 45.86344162-6.7719677 63.68126868-23.80857468 18.58732035-19.67271132 23.27952567-42.5788751 23.27026367-68.77612304.00299955-1.39436431.0064039-2.7887278.01017761-4.18309021.00876403-3.75650597.01117491-7.5129891.0118158-11.26950431.00071492-2.3562106.00285757-4.71241555.00549721-7.06862474.00922887-8.24651133.01333804-16.4930066.01254844-24.73952293-.00059986-7.64401775.0099403-15.28796472.02574367-22.93196458.01314731-6.59829746.01843722-13.196572.01780092-19.79488241-.0002529-3.9250627.0024826-7.85006241.01317805-11.77511186.00980286-3.69782975.00967838-7.39553787.00248337-11.09337234-.0015157-1.97445465.00671517-3.94890962.01544-5.92334557C316.16948621 77.74405186 309.52222976 56.0999183 291.125 36.8125c-13.92143978-13.40982014-33.37395076-21.88727951-52.76838684-21.95967102l-1.94671744-.01114148c-2.13900026-.01095657-4.2779518-.01486701-6.4169758-.01868945-1.53978629-.00627107-3.07957108-.01291844-4.61935425-.01991272-5.04768839-.0209787-10.09537684-.0314015-15.14309692-.04136658-1.74490563-.00405086-3.4898111-.00816788-5.23471642-.01235008-8.20607359-.0190437-16.41213826-.03327245-24.61822969-.04161197-9.43373067-.00974813-18.8672252-.03600744-28.3008728-.0765009-7.31497772-.03030732-14.62988835-.04498201-21.94492757-.04828011-4.35729056-.00233523-8.71432866-.0110932-13.07155115-.03646118-4.10987832-.02354103-8.21934266-.02741136-12.3292713-.01723861-1.4941694.00048933-2.988361-.00564925-4.48246576-.01955605C86.7209955 14.3910344 72.66874437 16.13669394 60.625 22.75Z"/><path fill="#CEE185" d="M136.875 152.5625c6.27976801 4.89821905 10.02839432 10.49841605 13.21875 17.72265625l1.07458496 2.35801697c1.1215087 2.46832213 2.22665172 4.94358344 3.33166504 7.41932678.73984942 1.63263133 1.48072765 3.26479685 2.22265625 4.89648438 5.7319771 12.65211609 5.7319771 12.65211609 7.96875 18.16943359l.78942871 1.92662048c.68351679 1.68217779 1.35106789 3.37081903 2.01721192 5.05995178 2.35120923 4.51629382 4.76019088 7.24979025 9.59739685 9.01391602 4.38004948 1.15010969 8.63813027 1.1147295 13.14112854 1.05053711l2.72262573-.01371765c1.94027701-.01091352 3.88053269-.02638621 5.82074165-.04596138 3.07288435-.03027943 6.14557732-.04700415 9.21858025-.06005669 8.7333058-.03966297 17.46637934-.10489378 26.19947815-.17616272 5.35077544-.04273508 10.70147362-.07081651 16.05238151-.0902996 2.03536435-.01055617 4.07070725-.02694114 6.10597611-.04930497 2.84559215-.03122931 5.69072929-.0439733 8.5364666-.05277824l2.53651428-.04220581C272.3711397 219.65676592 275.70473761 220.28459177 280 223c2.79308211 3.22572353 4.7837262 6.90811032 5.2265625 11.19140625C284.85633167 238.83692167 283.24487572 241.75512428 280 245c-3.07350969 1.53675484-6.3251805 1.24191963-9.703125 1.31640625l-2.44020081.06352234c-2.70211542.06739044-5.40431155.12599467-8.10667419.18257141l-2.82040405.06115723c-15.72525199.33242184-31.45309465.5351672-47.18167115.60751342-2.35428029.01245064-4.70854004.02988393-7.06274414.05255127-35.36778904.31936858-35.36778904.31936858-45.32263183-8.78054809C151.84048831 232.51205169 148.54146346 225.70619092 145.125 218.375c-.60984374-1.28311909-1.22020116-2.56599415-1.83105469-3.84863281-4.20553795-8.89510635-8.08437751-17.90671724-11.62939453-27.08740235l-.99267578-2.54833984-.84082031-2.21777344C129.11264262 180.80546484 129.11264262 180.80546484 127 180l-1.23754883 1.68066406c-1.8581363 2.52324515-3.71654106 5.04629245-5.57495117 7.56933594l-1.94726562 2.64453125-1.88476563 2.55859375-1.72973633 2.34863281C113.09271321 198.87463737 111.54952488 200.93943976 110 203l3.875-.03515625c1.70833186-.00938644 3.41666532-.01848572 5.125-.02734375l2.54296875-.02539062C126.78878683 202.89177675 131.82889237 203.0708166 137 204c2.68556602 2.8534139 2.96842857 4.73840813 3.4375 8.625C140 216 140 216 138.36669922 217.6953125 133.49937383 220.37851725 127.5256934 219.21296971 122.125 219l-3.83984375-.05859375c-10.38737984-.36044536-10.38737984-.36044536-14.16796875-3.50390625L102 213l-1.51171875 2.02734375C95.75575552 221.35720312 90.98662408 227.65796125 86.1875 233.9375l-1.66870117 2.18530273C83.01703313 238.0853817 81.50966132 240.04349162 80 242l-2.2421875 2.91796875C75.60683868 247.46567774 74.24531689 248.24527514 71 249c-3.84924333.14256457-6.07230961-.15882042-8.96875-2.78515625-4.01758926-4.53625345-6.55377692-7.62513622-6.45996094-13.93212891.85955559-4.57679087 3.96182059-7.90638973 6.80371094-11.47021484l1.94970703-2.53955078C66.20035981 215.8355836 68.09844351 213.41717085 70 211c.86712402-1.1269559 1.73207261-2.25559288 2.59375-3.38671875 1.5449096-2.02372576 3.09723185-4.04181044 4.65625-6.0546875 3.56616845-4.6049501 7.09462138-9.23868516 10.625-13.87109375l2.0769043-2.72436523c4.75447656-6.24444173 9.47882029-12.51065388 14.15502929-18.81396485C112.0987222 155.42319536 122.2797631 145.08689086 136.875 152.5625Z"/><path fill="#CEE185" d="m166.32400513 89.73930359 2.59910583-.02146912 2.82737732.00750733 2.99739075-.01548767c3.27420588-.01391317 6.54820152-.01293717 9.82243347-.01063538 2.27961302-.00388747 4.55922532-.00822224 6.83883667-.01298523 4.78323714-.00746701 9.5664005-.00716851 14.3496399-.00190735 6.1129678.00577929 12.22563113-.0110969 18.33854866-.03434467 4.71165022-.0147782 9.42322793-.0156032 14.13489723-.01249027 2.25252126-.0005117 4.50504675-.00572058 6.75754547-.01581192 3.16131824-.01241886 6.32205428-.00553865 9.4833641.00600624l2.79057312-.02316284c11.56954823.0927855 20.77071877 3.73781376 29.15815735 11.69235229 8.22870698 8.65896616 11.93904207 17.0874556 11.796875 29.01171875C297.33155946 141.22420595 291.93532562 148.85783413 284 156c-3.1330355 2.36134338-6.39227235 4.4978293-9.6875 6.625l-2.77441406 1.81958008C268.69737332 166.3046865 265.84922239 168.15296212 263 170c-1.74125228 1.1361567-3.48214957 2.27285767-5.22265625 3.41015625C252.8595082 176.6190914 247.93091478 179.81121228 243 183c-1.47792132.95694363-2.9557876 1.91397227-4.43359375 2.87109375-2.79329338 1.80880842-5.58769787 3.61588247-8.3828125 5.421875-2.9282011 1.89276147-5.85195738 3.79219447-8.7734375 5.6953125l-2.30004883 1.49560547c-1.4396453.93628052-2.8783595 1.87399508-4.31591796 2.81347656C201.48551439 209.94334755 201.48551439 209.94334755 195 209c-3.4375-1.875-3.4375-1.875-6-4v-2l-3-1c-2.04836083-3.07254125-2.29456493-3.87168284-2.3125-7.375l-.05078125-2.2734375C184.12051407 189.21989816 185.13028082 187.57909644 187 185c2.2689728-1.6184345 4.45932939-3.02795983 6.859375-4.41796875 1.45458754-.87589408 2.90694915-1.75549213 4.35742188-2.6381836l2.35034179-1.42962646c4.3073962-2.6809381 8.4997678-5.5304573 12.69848633-8.37750244l2.70666504-1.83151245c2.76078797-1.87029345 5.51948292-3.74363858 8.27770996-5.6177063 3.64946073-2.47760067 7.300767-4.952454 10.953125-7.42578125l2.6956787-1.8310852c4.563913-3.08855027 9.15464419-6.11987982 13.81018068-9.06881714l2.78045654-1.76860047c1.74129867-1.102699 3.4884542-2.19622305 5.24230957-3.27883911 5.72461772-3.62427072 5.72461772-3.62427072 9.2682495-9.31437683.37935385-3.16128194.57320523-5.0765027-1.125-7.8125-4.8905745-3.09736385-11.55421776-2.31607735-17.14990233-2.28173828-1.894643.00278506-3.78928615.00545513-5.68392944.00802612l-3.02463913.009243c-5.30762828.01138805-10.61517304-.0091637-15.9227791-.02459334-6.74397463-.01829023-13.48749052-.02694588-20.2314453.00195313-5.46023048.02255887-10.91946803.01108596-16.37962723-.02300644-2.0755357-.00675912-4.15115142-.00111718-6.2266159.01735687-2.9085667.0242276-5.81391388.0049118-8.72237015-.0241356-.85013168.01738725-1.70026337.03477448-2.57615662.0526886-5.9654836-.1234636-8.9646207-1.9278048-13.24973488-6.03202628-3.9533276-4.37803108-5.26711388-6.80196331-5.06326866-12.70376778C154.18052268 95.8890912 155.57136684 94.22624707 158 92c2.88132652-1.71398842 4.98569326-2.25147137 8.32400513-2.26069641ZM143 121c6.75171117 4.36378203 13.31393842 9.34743223 15.3125 17.4375 1.71532794 9.89227959 1.71532794 9.89227959-.8125 14-2.74037404 1.71273378-4.89384065 2.42095851-8.1484375 2.29296875-4.34563443-1.34988976-7.42746813-4.54786462-10.73828125-7.56640625-4.69003741-3.88382769-9.03027492-4.75294267-15-4.59375-12.0195362 1.9763064-20.22078562 15.7942999-27.17749023 24.76806641-3.69556091 4.760965-7.51708905 9.40527664-11.37329102 14.03662109-5.07728276 6.11442117-9.9322226 12.35113701-14.65942383 18.73901367-3.88928506 5.24337565-7.92329601 10.35342379-12.02880859 15.42871094-2.43622613 3.01664364-4.84049794 6.04851036-7.17504883 9.14477539l-1.34912109 1.78637695c-1.20402524 1.60239916-2.40039948 3.2105392-3.59619141 4.8190918C43.23231349 234.9220221 40.72350368 237.67684306 36 238.5625 33 238 33 238 30.1875 236.25 26.90709116 231.37624972 26.52045707 226.80018588 27 221c1.08014779-3.17551644 2.89073984-5.41732811 5-8l2.0703125-2.74609375c2.11304118-2.79298018 4.25505744-5.55858973 6.4140625-8.31591797 1.63543811-2.09119003 3.26359895-4.18790364 4.890625-6.28564453 5.7911955-7.46378051 11.60457851-14.90962298 17.44775391-22.33276367C66.50196928 168.6421021 70.15976196 163.94817513 73.8125 159.25l1.76977539-2.27490234c3.0654102-3.94214016 6.12461952-7.8889166 9.17553711-11.84228516l1.86791992-2.41503906c1.16631736-1.50815003 2.33069959-3.0177996 3.49267578-4.52929688C103.47676736 120.93301098 121.0966773 109.1631806 143 121Z"/><path fill="#CEE186" d="M203.390625 56.99609375C208.95519876 61.26948647 214.07390801 66.01075298 219 71l3-2 1 13-11-5 2-3c-16.53872033-13.1957875-32.58539004-20.09170451-54-18-4.00792569.83557461-7.37721947 2.11240238-11 4l-2.6015625 1.3203125C132.4082393 69.05507465 124.54736248 81.34511511 120 96.3828125c-1.24535669 4.50468867-2.27222741 9.00071955-3 13.6171875-3.41676688-5.34351512-1.25640361-11.16065266 0-17 4.08437866-16.11399144 12.74624752-29.23117852 27.0625-37.9375 18.71036963-10.20783966 41.4964666-10.27950956 59.328125 1.93359375Z"/><path fill="#CEE185" d="M273 191c2.84403887 2.22911154 4.91034113 4.5329036 6 8-.32145945 6.10772955-.32145945 6.10772955-2.27734375 8.6796875-2.74608193 2.10470678-5.13105176 1.92065672-8.4921875 1.7890625-2.97961702-.62618922-4.70379345-2.04198937-6.4140625-4.55078125C260.2622404 201.26679444 260.10317042 197.84980502 261 194c3.57675755-4.55223688 6.61982082-4.56514303 12-3ZM9.5625 151.9375C13 153 13 153 15.5 155.125c1.97798094 3.79113014 1.63111674 5.80297973.5 9.875-1.67684402 2.64764845-2.85138861 2.95477045-5.875 3.875-3.77569465.15102779-5.20638508-.52389353-8.125-2.875-1.91399936-2.52299916-2.00400861-3.80758679-1.9375-7 1.61641485-5.17252751 4.1070811-6.96788739 9.5-7.0625Z"/></svg>